<?xml version="1.0" standalone="no"?>
<svg viewBox="0 0 200 200" xmlns="http://www.w3.org/2000/svg">
  <path fill="#131C31" d="M33.6,-58.2C41.6,-53.5,44.7,-40.6,49.5,-29.5C54.2,-18.4,60.4,-9.2,63.9,2C67.5,13.3,68.3,26.6,61.9,34.7C55.4,42.8,41.8,45.8,30.3,48C18.7,50.3,9.4,51.9,-2,55.4C-13.4,58.9,-26.8,64.2,-39.9,62.9C-53,61.5,-65.9,53.5,-67.9,41.9C-69.9,30.3,-61.1,15.2,-59.8,0.8C-58.5,-13.7,-64.7,-27.3,-62.7,-38.8C-60.6,-50.4,-50.3,-59.8,-38.5,-62.3C-26.7,-64.8,-13.3,-60.2,-0.3,-59.8C12.8,-59.3,25.6,-62.9,33.6,-58.2Z" transform="translate(100 100)" />
</svg>
