<!--?xml version="1.0" standalone="no"?-->
              <svg id="sw-js-blob-svg" viewBox="0 0 100 100" xmlns="http://www.w3.org/2000/svg" version="1.1">
                    <defs> 
                        <linearGradient id="sw-gradient" x1="0" x2="1" y1="1" y2="0">
                            <stop id="stop1" stop-color="rgba(70.162, 95.829, 191.165, 1)" offset="0%"></stop>
                            <stop id="stop2" stop-color="rgba(34, 41, 67, 1)" offset="100%"></stop>
                        </linearGradient>
                    </defs>
                <path fill="url(#sw-gradient)" d="M20.7,-38.4C24.8,-33.4,24.7,-23.8,24.7,-16.6C24.8,-9.5,24.9,-4.7,26.6,0.9C28.2,6.6,31.3,13.2,29.8,17.9C28.3,22.5,22.1,25.1,16.4,26.5C10.7,27.9,5.3,28,-0.8,29.3C-6.9,30.6,-13.7,33.1,-20,32.1C-26.3,31.1,-32.1,26.5,-36.7,20.5C-41.3,14.6,-44.8,7.3,-43.3,0.9C-41.8,-5.6,-35.4,-11.1,-30.7,-17C-26,-22.8,-23.1,-28.9,-18.3,-33.4C-13.4,-38,-6.7,-41.1,0.8,-42.4C8.3,-43.8,16.6,-43.4,20.7,-38.4Z" width="100%" height="100%" transform="translate(50 50)" stroke-width="0" style="transition: all 0.3s ease 0s;" stroke="url(#sw-gradient)"></path>
              </svg>